PathFileType	4	(X/Y/Z)	C:\Data Capture\Research\archery\Archery pilot8.trc
DataRate	CameraRate	NumFrames	NumMarkers	Units	OrigDataRate	OrigDataStartFrame	OrigNumFrames
100.00	100.00	       67	3	mm	100.00	267	       800
Frame#	Time	Marker 1			Marker 2			Marker 3			
		X1	Y1	Z1	X2	Y2	Z2	X3	Y3	Z3	

267	2.660	99.36337	463.81305	1149.73022	41.17050	462.50153	1068.50891	-42.24682	454.72894	1145.07715	
268	2.670	99.63170	463.89703	1150.84631	42.31825	463.01517	1069.01831	-41.99128	455.28552	1144.59375	
269	2.680	100.02804	463.98373	1152.40674	43.84840	463.59225	1069.82861	-41.54762	455.92688	1144.14441	
270	2.690	100.54734	464.07047	1154.47961	45.80908	464.23401	1070.97681	-40.90545	456.66281	1143.71582	
271	2.700	101.16455	464.16437	1157.10779	48.20089	464.93530	1072.49097	-40.07491	457.48981	1143.31042	
272	2.710	101.83914	464.27951	1160.29553	50.98006	465.68851	1074.38782	-39.07759	458.39713	1142.94629	
273	2.720	102.52635	464.43164	1164.00806	54.07808	466.48752	1076.67456	-37.93579	459.37292	1142.64844	
274	2.730	103.18573	464.63187	1168.19104	57.42895	467.33173	1079.35352	-36.66406	460.40280	1142.44031	
275	2.740	103.78506	464.88141	1172.79871	60.99040	468.23337	1082.43372	-35.25940	461.46396	1142.33691	
276	2.750	104.30357	465.17273	1177.81262	64.75120	469.22070	1085.93848	-33.69419	462.53329	1142.34058	
277	2.760	104.72980	465.49481	1183.23889	68.73122	470.32355	1089.90381	-31.91572	463.60724	1142.43860	
278	2.770	105.05132	465.83728	1189.09888	72.97531	471.55057	1094.36963	-29.85362	464.70859	1142.61206	
279	2.780	105.24353	466.19299	1195.41602	77.52821	472.88464	1099.37793	-27.43828	465.87253	1142.84534	
280	2.790	105.26532	466.56058	1202.20215	82.39764	474.30038	1104.96997	-24.62222	467.13147	1143.13611	
281	2.800	105.06063	466.94507	1209.44287	87.53661	475.77896	1111.18384	-21.38894	468.50818	1143.50049	
282	2.810	104.56258	467.35461	1217.09155	92.85706	477.30612	1118.05188	-17.74481	470.01071	1143.96667	
283	2.820	103.69673	467.79575	1225.07654	98.25577	478.86014	1125.60474	-13.69733	471.62921	1144.56287	
284	2.830	102.38414	468.27075	1233.31628	103.63387	480.40207	1133.87720	-9.23054	473.34003	1145.31250	
285	2.840	100.54780	468.77734	1241.73474	108.90887	481.87286	1142.91028	-4.29457	475.11246	1146.24097	
286	2.850	98.11893	469.30786	1250.26367	114.01800	483.19724	1152.74780	1.18520	476.91199	1147.38342	
287	2.860	95.04008	469.85220	1258.82935	118.90392	484.29404	1163.41968	7.28127	478.69662	1148.78528	
288	2.870	91.27238	470.40714	1267.33423	123.48520	485.08951	1174.91028	14.02080	480.40851	1150.49707	
289	2.880	86.81148	470.98026	1275.64636	127.63283	485.53452	1187.11804	21.33955	481.97620	1152.56970	
290	2.890	81.70625	471.58209	1283.60498	131.17332	485.62274	1199.82996	29.05040	483.33887	1155.04871	
291	2.900	76.07259	472.21527	1291.03967	133.92210	485.39569	1212.72546	36.84208	484.46906	1157.95581	
292	2.910	70.09381	472.86554	1297.79761	135.73315	484.92743	1225.40466	44.32172	485.37198	1161.26636	
293	2.920	64.00133	473.49631	1303.76953	136.54356	484.29880	1237.43970	51.09217	486.07874	1164.90027	
294	2.930	58.04045	474.04990	1308.90344	136.39583	483.57382	1248.43958	56.83114	486.64771	1168.72998	
295	2.940	52.43566	474.45786	1313.20544	135.43327	482.78784	1258.11182	61.34904	487.16309	1172.59973	
296	2.950	47.36670	474.66058	1316.72852	133.87320	481.95114	1266.29834	64.61304	487.71844	1176.35010	
297	2.960	42.95559	474.63193	1319.55408	131.96597	481.06683	1272.97461	66.73016	488.38406	1179.83740	
298	2.970	39.26088	474.39429	1321.77075	129.95142	480.15131	1278.21741	67.90137	489.17480	1182.94080	
299	2.980	36.28016	474.01443	1323.46008	128.02417	479.24353	1282.16772	68.36822	490.04294	1185.56689	
300	2.990	33.96262	473.58255	1324.69080	126.31611	478.39853	1285.00208	68.36680	490.90189	1187.65808	
301	3.000	32.22696	473.18494	1325.52173	124.89803	477.67020	1286.91321	68.09906	491.66339	1189.20007	
302	3.010	30.97612	472.88229	1326.01111	123.79148	477.09116	1288.09314	67.72243	492.26379	1190.22461	
303	3.020	30.10871	472.70230	1326.22241	122.98100	476.66122	1288.72046	67.34898	492.67410	1190.80200	
304	3.030	29.53090	472.64615	1326.22156	122.42671	476.35361	1288.95117	67.04797	492.89987	1191.02625	
305	3.040	29.16645	472.69986	1326.07043	122.07881	476.13400	1288.91394	66.85283	492.97348	1190.99585	
306	3.050	28.95979	472.84396	1325.82178	121.88940	475.97781	1288.70862	66.77021	492.94052	1190.79736	
307	3.060	28.87411	473.05817	1325.51831	121.81870	475.87521	1288.40479	66.78671	492.84799	1190.49634	
308	3.070	28.88918	473.32172	1325.19263	121.83802	475.82629	1288.04321	66.87414	492.74002	1190.13708	
309	3.080	28.99861	473.61359	1324.86621	121.93016	475.83337	1287.63953	66.99743	492.65582	1189.74670	
310	3.090	29.20430	473.91330	1324.54761	122.08646	475.89255	1287.19226	67.12594	492.62399	1189.34106	
311	3.100	29.50974	474.20111	1324.23523	122.30269	475.98657	1286.69373	67.24203	492.65536	1188.92712	
312	3.110	29.91457	474.45911	1323.92236	122.57715	476.08453	1286.13843	67.34277	492.73959	1188.50427	
313	3.120	30.41107	474.67413	1323.60229	122.91002	476.14932	1285.52698	67.43667	492.84811	1188.06470	
314	3.130	30.98331	474.84158	1323.26990	123.30116	476.15115	1284.86450	67.53676	492.94308	1187.59924	
315	3.140	31.60917	474.96536	1322.92383	123.74635	476.08047	1284.16150	67.65105	492.98904	1187.10449	
316	3.150	32.26358	475.05399	1322.56702	124.23494	475.95071	1283.43286	67.77634	492.96426	1186.58704	
317	3.160	32.92194	475.11575	1322.20496	124.75179	475.79010	1282.69690	67.90086	492.86594	1186.06201	
318	3.170	33.56499	475.15475	1321.84460	125.28112	475.63107	1281.97461	68.01270	492.70978	1185.54944	
319	3.180	34.18291	475.16907	1321.49695	125.80750	475.50235	1281.28772	68.10585	492.52698	1185.06726	
320	3.190	34.77528	475.15482	1321.17603	126.31513	475.42224	1280.64856	68.18033	492.35327	1184.62671	
321	3.200	35.34943	475.11188	1320.89453	126.79156	475.39346	1280.05347	68.23991	492.21265	1184.23132	
322	3.210	35.91653	475.04697	1320.65747	127.23312	475.40198	1279.48779	68.29121	492.10770	1183.87732	
323	3.220	36.48333	474.97333	1320.46094	127.64570	475.42218	1278.94067	68.34396	492.02219	1183.55823	
324	3.230	37.04858	474.90796	1320.29651	128.04175	475.42694	1278.41394	68.41049	491.92819	1183.26660	
325	3.240	37.60691	474.86734	1320.15637	128.43623	475.39920	1277.92346	68.50316	491.79321	1182.99512	
326	3.250	38.15050	474.86334	1320.03674	128.84152	475.34244	1277.49207	68.63085	491.59021	1182.74060	
327	3.260	38.66890	474.90100	1319.93970	129.26379	475.28314	1277.14099	68.79598	491.30991	1182.50854	
328	3.270	39.15514	474.97806	1319.87183	129.70244	475.26477	1276.88281	68.99148	490.96924	1182.31152	
329	3.280	39.61129	475.08606	1319.84302	130.14902	475.34140	1276.71851	69.19831	490.60968	1182.16333	
330	3.290	40.04541	475.21368	1319.86426	130.58665	475.57532	1276.63831	69.38597	490.28543	1182.07544	
331	3.300	40.46596	475.35071	1319.94556	130.99371	476.03619	1276.62305	69.51654	490.04965	1182.05627	
332	3.310	40.88102	475.49219	1320.09412	131.35031	476.79858	1276.64783	69.54985	489.94684	1182.10864	
333	3.320	41.29939	475.64157	1320.31287	131.64070	477.93726	1276.68457	69.44847	490.01086	1182.22473	
